<svg width="43" height="32" viewBox="0 0 43 32" fill="none" xmlns="http://www.w3.org/2000/svg">
<path d="M42.0104 7.74589C41.8962 5.10849 39.8138 3.9954 38.477 3.7118C38.1277 2.41438 37.4761 1.52106 36.5424 1.05314C35.0781 0.315803 33.3651 0.882985 32.6934 1.16658C32.1627 0.72701 30.8327 -0.20175 29.2743 0.039302C28.0517 0.230726 26.9904 1.0815 26.1104 2.57035C24.7669 2.49236 22.5502 3.0241 21.8583 5.49843C20.2461 6.491 19.3661 7.6679 19.252 9.00078C19.0907 10.8228 20.4141 12.3046 20.8776 12.7584C21.0388 14.5379 21.6568 15.7715 22.7114 16.4309C24.2765 17.4092 26.2985 16.7712 27.0307 16.4734C27.8166 17.1611 28.5756 17.5369 29.2944 17.5865V29.6746L28.0651 31.1847C27.9509 31.3265 27.9173 31.5392 27.998 31.7093C28.0786 31.8866 28.2398 32 28.4279 32H33.9697C34.1578 32 34.3324 31.8795 34.3996 31.6951C34.4735 31.5037 34.4332 31.291 34.2988 31.1563L32.8479 29.6249V17.0548C34.1712 17.2533 35.0243 16.4663 35.4475 15.7573C37.6172 16.5443 39.3369 16.4876 40.5661 15.5872C42.0775 14.4741 42.3059 12.4464 42.3395 11.7941C42.803 11.227 43.0247 10.6031 42.9978 9.93663C42.9508 8.90152 42.3126 8.07911 42.0104 7.74589ZM20.5081 19.6992C20.5081 19.4298 20.2999 19.203 20.0379 19.203C19.7893 19.203 19.5878 19.4086 19.5744 19.6709H19.5677V19.6992V20.6635H1.85399V19.6992C1.85399 19.4298 1.64575 19.203 1.38378 19.203C1.1218 19.203 0.913561 19.4227 0.913561 19.6992V26.0446H0V28.604H0.913561V31.2414C0.913561 31.5108 1.1218 31.7377 1.38378 31.7377C1.64575 31.7377 1.85399 31.5179 1.85399 31.2414V28.604H19.5677V31.2414C19.5677 31.5108 19.7759 31.7377 20.0379 31.7377C20.2931 31.7377 20.5081 31.5179 20.5081 31.2414V28.604H21.4217V26.0446H20.5081V19.6992ZM19.5677 26.0446H1.85399V25.052H19.5677V26.0446ZM19.5677 23.3008V23.7971H1.85399V22.8046H19.5677V23.3008Z" fill="black"/>
</svg>
