<svg width="28" height="29" viewBox="0 0 28 29" fill="none" xmlns="http://www.w3.org/2000/svg">
<path d="M7.77778 21.75C8.19034 21.75 8.586 21.5972 8.87772 21.3253C9.16945 21.0534 9.33333 20.6846 9.33333 20.3C9.34097 20.2035 9.34097 20.1065 9.33333 20.01C9.31631 19.9192 9.28485 19.8312 9.24 19.749C9.20595 19.6566 9.15887 19.5688 9.1 19.488L8.91333 19.2705C8.76539 19.1385 8.59095 19.035 8.4 18.966C8.10921 18.8384 7.78316 18.7979 7.46667 18.85L7.18667 18.937L6.90667 19.0675C6.82517 19.121 6.74725 19.1791 6.67333 19.2415L6.48667 19.459C6.42779 19.5398 6.38071 19.6276 6.34667 19.72C6.30182 19.8022 6.27036 19.8902 6.25333 19.981C6.2457 20.0775 6.2457 20.1745 6.25333 20.271C6.25333 20.6556 6.41722 21.0244 6.70895 21.2963C7.00067 21.5682 7.39633 21.721 7.80889 21.721L7.77778 21.75ZM20.2222 21.75C20.6348 21.75 21.0304 21.5972 21.3222 21.3253C21.6139 21.0534 21.7778 20.6846 21.7778 20.3C21.7854 20.2035 21.7854 20.1065 21.7778 20.01C21.7608 19.9192 21.7293 19.8312 21.6844 19.749C21.6504 19.6566 21.6033 19.5688 21.5444 19.488L21.3578 19.2705C21.2066 19.1424 21.033 19.0394 20.8444 18.966C20.4657 18.821 20.0409 18.821 19.6622 18.966C19.4737 19.0394 19.3001 19.1424 19.1489 19.2705L18.9622 19.488C18.9033 19.5688 18.8563 19.6566 18.8222 19.749C18.7774 19.8312 18.7459 19.9192 18.7289 20.01C18.7213 20.1065 18.7213 20.2035 18.7289 20.3C18.7306 20.6804 18.8926 21.0449 19.18 21.315C19.4557 21.5779 19.8282 21.7334 20.2222 21.75ZM15.5556 4.35H12.4444C12.0319 4.35 11.6362 4.50277 11.3445 4.7747C11.0528 5.04662 10.8889 5.41544 10.8889 5.8C10.8889 6.18456 11.0528 6.55338 11.3445 6.8253C11.6362 7.09723 12.0319 7.25 12.4444 7.25H15.5556C15.9681 7.25 16.3638 7.09723 16.6555 6.8253C16.9472 6.55338 17.1111 6.18456 17.1111 5.8C17.1111 5.41544 16.9472 5.04662 16.6555 4.7747C16.3638 4.50277 15.9681 4.35 15.5556 4.35ZM23.3333 0H4.66667C3.42899 0 2.242 0.458302 1.36684 1.27409C0.491665 2.08987 0 3.19631 0 4.35V21.75C0.00270591 22.6475 0.303144 23.5222 0.860126 24.2542C1.41711 24.9863 2.20337 25.5398 3.11111 25.839V27.55C3.11111 27.9346 3.275 28.3034 3.56672 28.5753C3.85845 28.8472 4.25411 29 4.66667 29C5.07923 29 5.47489 28.8472 5.76661 28.5753C6.05833 28.3034 6.22222 27.9346 6.22222 27.55V26.1H21.7778V27.55C21.7778 27.9346 21.9417 28.3034 22.2334 28.5753C22.5251 28.8472 22.9208 29 23.3333 29C23.7459 29 24.1416 28.8472 24.4333 28.5753C24.725 28.3034 24.8889 27.9346 24.8889 27.55V25.839C25.7966 25.5398 26.5829 24.9863 27.1399 24.2542C27.6969 23.5222 27.9973 22.6475 28 21.75V4.35C28 3.19631 27.5083 2.08987 26.6332 1.27409C25.758 0.458302 24.571 0 23.3333 0ZM24.8889 21.75C24.8889 22.1346 24.725 22.5034 24.4333 22.7753C24.1416 23.0472 23.7459 23.2 23.3333 23.2H4.66667C4.25411 23.2 3.85845 23.0472 3.56672 22.7753C3.275 22.5034 3.11111 22.1346 3.11111 21.75V17.4H24.8889V21.75ZM24.8889 14.5H3.11111V4.35C3.11111 3.96544 3.275 3.59662 3.56672 3.3247C3.85845 3.05277 4.25411 2.9 4.66667 2.9H23.3333C23.7459 2.9 24.1416 3.05277 24.4333 3.3247C24.725 3.59662 24.8889 3.96544 24.8889 4.35V14.5Z" fill="black"/>
</svg>
